<svg width="536" height="146" viewBox="0 0 1787 488" fill="none" xmlns="http://www.w3.org/2000/svg"><g filter="url(#filter0_d_0_1)"><path d="M75.0641 173.569C76.2024 159.96 90.3351 151.573 102.874 157.067L202.968 200.921C210.867 204.382 215.709 212.496 214.992 221.069L201.804 378.751C200.58 393.391 184.529 401.639 171.839 394.151L72.9569 335.799C66.2862 331.863 62.4451 324.45 63.0887 316.754L75.0641 173.569Z" fill="#7C89FF" /><path d="M362.785 128.325C382.052 134.996 380.916 163.593 361.226 167.585L230.859 194.015C227.158 194.766 223.298 194.385 219.747 192.919L101.061 143.936C82.3583 136.217 84.7788 108.126 104.421 104.948L229.769 84.665C232.873 84.1628 236.067 84.4454 239.081 85.4891L362.785 128.325Z" fill="#7C89FF" /><path d="M379.029 201.388C380.167 187.778 367.641 176.952 354.381 180.084L248.528 205.091C240.174 207.064 234.059 214.175 233.342 222.749L220.154 380.431C218.929 395.07 233.367 406.109 247.107 401.039L354.174 361.536C361.396 358.871 366.41 352.268 367.053 344.573L379.029 201.388Z" fill="#7C89FF" /><path d="M13.6466 11.7979L14.0102 79.2772C14.0111 79.4452 13.8752 79.5818 13.7072 79.5818V79.5818C13.6738 79.5818 13.6466 79.5547 13.6466 79.5212V54.3126V13.0134C13.6466 11.3566 14.9898 10.0134 16.6466 10.0134H90.432C90.5769 10.0134 90.6944 9.89595 90.6944 9.75104V9.75104C90.6944 9.72372 90.6721 9.70163 90.6448 9.70185L14.0118 10.3254" stroke="#3E2DA6" stroke-width="19" /><path d="M13.6466 467.904L14.0102 400.424C14.0111 400.256 13.8752 400.12 13.7072 400.12V400.12C13.6738 400.12 13.6466 400.147 13.6466 400.18V425.389V466.688C13.6466 468.345 14.9898 469.688 16.6466 469.688H90.432C90.5769 469.688 90.6944 469.806 90.6944 469.95V469.95C90.6944 469.978 90.6721 470 90.6448 470L14.0118 469.376" stroke="#3E2DA6" stroke-width="19" /><path d="M437.465 11.7979L437.101 79.2772C437.1 79.4452 437.236 79.5818 437.404 79.5818V79.5818C437.437 79.5818 437.465 79.5547 437.465 79.5212V54.3126V13.0134C437.465 11.3566 436.121 10.0134 434.465 10.0134H360.679C360.534 10.0134 360.417 9.89595 360.417 9.75104V9.75104C360.417 9.72372 360.439 9.70163 360.466 9.70185L437.099 10.3254" stroke="#3E2DA6" stroke-width="19" /><path d="M437.465 467.904L437.101 400.424C437.1 400.256 437.236 400.12 437.404 400.12V400.12C437.437 400.12 437.465 400.147 437.465 400.18V425.389V466.688C437.465 468.345 436.121 469.688 434.465 469.688H360.679C360.534 469.688 360.417 469.806 360.417 469.95V469.95C360.417 469.978 360.439 470 360.466 470L437.099 469.376" stroke="#3E2DA6" stroke-width="19" /><rect x="0.5" y="-0.5" width="37.2676" height="132.434" rx="13.5" transform="matrix(1 0 0 -1 482.542 305.222)" fill="#3E2DA6" stroke="#3E2DA6" /><rect x="-0.5" y="-0.5" width="39.0302" height="126.559" rx="13.5" transform="matrix(1.13998e-08 -1 -1 -1.24742e-08 564.455 258.52)" fill="#3E2DA6" stroke="#3E2DA6" /><rect x="0.5" y="-0.5" width="37.2676" height="132.434" rx="13.5" transform="matrix(1 0 0 -1 646.951 305.222)" fill="#3E2DA6" stroke="#3E2DA6" /><rect x="-0.5" y="-0.5" width="39.0302" height="126.559" rx="13.5" transform="matrix(1.13998e-08 -1 -1 -1.24742e-08 728.864 258.52)" fill="#3E2DA6" stroke="#3E2DA6" /></g><g filter="url(#filter1_d_0_1)"><path d="M879.224 313.394C869.06 313.394 860.205 311.469 852.659 307.619C845.267 303.769 839.492 298.225 835.334 290.987C831.33 283.595 829.328 274.894 829.328 264.884V188.654C829.328 178.49 831.33 169.789 835.334 162.551C839.492 155.313 845.267 149.769 852.659 145.919C860.205 142.069 869.06 140.144 879.224 140.144C889.388 140.144 898.166 142.146 905.558 146.15C912.95 150 918.648 155.544 922.652 162.782C926.656 170.02 928.658 178.644 928.658 188.654H907.868C907.868 179.106 905.327 171.791 900.245 166.709C895.317 161.473 888.31 158.855 879.224 158.855C870.138 158.855 862.977 161.396 857.741 166.478C852.659 171.56 850.118 178.875 850.118 188.423V264.884C850.118 274.432 852.659 281.824 857.741 287.06C862.977 292.142 870.138 294.683 879.224 294.683C888.31 294.683 895.317 292.142 900.245 287.06C905.327 281.824 907.868 274.432 907.868 264.884H928.658C928.658 274.74 926.656 283.364 922.652 290.756C918.648 297.994 912.95 303.615 905.558 307.619C898.166 311.469 889.388 313.394 879.224 313.394ZM1034.13 311.084C1026.74 311.084 1020.27 309.621 1014.73 306.695C1009.19 303.769 1004.87 299.611 1001.79 294.221C998.715 288.831 997.175 282.517 997.175 275.279V161.396H954.44V142.454H1017.96V275.279C1017.96 280.515 1019.43 284.673 1022.35 287.753C1025.28 290.679 1029.21 292.142 1034.13 292.142H1074.56V311.084H1034.13ZM1144.23 313.394C1130.83 313.394 1120.28 310.006 1112.58 303.23C1104.88 296.3 1101.03 286.983 1101.03 275.279C1101.03 263.421 1104.88 254.104 1112.58 247.328C1120.28 240.552 1130.68 237.164 1143.77 237.164H1183.04V224.459C1183.04 216.605 1180.65 210.599 1175.88 206.441C1171.26 202.129 1164.64 199.973 1156.01 199.973C1148.47 199.973 1142.15 201.59 1137.07 204.824C1131.99 207.904 1129.06 212.139 1128.29 217.529H1107.5C1108.89 206.595 1114.05 197.894 1122.98 191.426C1131.91 184.958 1143.08 181.724 1156.47 181.724C1171.1 181.724 1182.65 185.497 1191.12 193.043C1199.59 200.589 1203.83 210.83 1203.83 223.766V311.084H1183.5V286.829H1180.04L1183.5 283.364C1183.5 292.604 1179.88 299.919 1172.64 305.309C1165.56 310.699 1156.09 313.394 1144.23 313.394ZM1149.31 296.993C1159.17 296.993 1167.25 294.529 1173.57 289.601C1179.88 284.673 1183.04 278.359 1183.04 270.659V252.641H1144.23C1137.3 252.641 1131.83 254.566 1127.83 258.416C1123.83 262.266 1121.82 267.502 1121.82 274.124C1121.82 281.208 1124.21 286.829 1128.99 290.987C1133.91 294.991 1140.69 296.993 1149.31 296.993ZM1289.9 312.932C1281.28 312.932 1273.73 311.623 1267.26 309.005C1260.95 306.233 1255.87 302.383 1252.02 297.455C1248.32 292.527 1246.09 286.675 1245.32 279.899H1266.11C1267.03 284.365 1269.5 287.907 1273.5 290.525C1277.66 293.143 1283.13 294.452 1289.9 294.452H1299.6C1307.77 294.452 1313.85 292.835 1317.85 289.601C1321.86 286.213 1323.86 281.747 1323.86 276.203C1323.86 270.813 1322.01 266.578 1318.32 263.498C1314.77 260.264 1309.46 258.108 1302.38 257.03L1285.28 254.258C1272.81 252.102 1263.49 248.252 1257.33 242.708C1251.33 237.01 1248.32 228.771 1248.32 217.991C1248.32 206.595 1251.94 197.817 1259.18 191.657C1266.42 185.343 1277.27 182.186 1291.75 182.186H1300.53C1312.69 182.186 1322.47 185.035 1329.87 190.733C1337.26 196.431 1341.72 204.131 1343.26 213.833H1322.47C1321.55 209.829 1319.24 206.672 1315.54 204.362C1311.85 201.898 1306.84 200.666 1300.53 200.666H1291.75C1283.9 200.666 1278.12 202.129 1274.43 205.055C1270.88 207.981 1269.11 212.37 1269.11 218.222C1269.11 223.458 1270.65 227.308 1273.73 229.772C1276.81 232.236 1281.66 234.007 1288.29 235.085L1305.38 237.857C1319.09 240.013 1329.02 244.017 1335.18 249.869C1341.49 255.721 1344.65 264.191 1344.65 275.279C1344.65 286.983 1340.88 296.223 1333.33 302.999C1325.94 309.621 1314.7 312.932 1299.6 312.932H1289.9ZM1428.41 312.932C1419.79 312.932 1412.24 311.623 1405.77 309.005C1399.46 306.233 1394.38 302.383 1390.53 297.455C1386.83 292.527 1384.6 286.675 1383.83 279.899H1404.62C1405.54 284.365 1408.01 287.907 1412.01 290.525C1416.17 293.143 1421.64 294.452 1428.41 294.452H1438.11C1446.28 294.452 1452.36 292.835 1456.36 289.601C1460.37 286.213 1462.37 281.747 1462.37 276.203C1462.37 270.813 1460.52 266.578 1456.83 263.498C1453.28 260.264 1447.97 258.108 1440.89 257.03L1423.79 254.258C1411.32 252.102 1402 248.252 1395.84 242.708C1389.84 237.01 1386.83 228.771 1386.83 217.991C1386.83 206.595 1390.45 197.817 1397.69 191.657C1404.93 185.343 1415.78 182.186 1430.26 182.186H1439.04C1451.2 182.186 1460.98 185.035 1468.38 190.733C1475.77 196.431 1480.23 204.131 1481.77 213.833H1460.98C1460.06 209.829 1457.75 206.672 1454.05 204.362C1450.36 201.898 1445.35 200.666 1439.04 200.666H1430.26C1422.41 200.666 1416.63 202.129 1412.94 205.055C1409.39 207.981 1407.62 212.37 1407.62 218.222C1407.62 223.458 1409.16 227.308 1412.24 229.772C1415.32 232.236 1420.17 234.007 1426.8 235.085L1443.89 237.857C1457.6 240.013 1467.53 244.017 1473.69 249.869C1480 255.721 1483.16 264.191 1483.16 275.279C1483.16 286.983 1479.39 296.223 1471.84 302.999C1464.45 309.621 1453.21 312.932 1438.11 312.932H1428.41ZM1560.68 289.139V244.094H1516.56V225.614H1560.68V180.569H1581.01V225.614H1625.13V244.094H1581.01V289.139H1560.68Z" fill="white" /><path d="M1694.76 289.055V244.01H1650.64V225.53H1694.76V180.485H1715.09V225.53H1759.21V244.01H1715.09V289.055H1694.76Z" fill="white" /></g><defs><filter id="filter0_d_0_1" x="0.146637" y="0.201843" width="733.718" height="487.298" filterUnits="userSpaceOnUse" color-interpolation-filters="sRGB"><feFlood flood-opacity="0" result="BackgroundImageFix" /><feColorMatrix in="SourceAlpha" type="matrix" values="0 0 0 0 0 0 0 0 0 0 0 0 0 0 0 0 0 0 127 0" result="hardAlpha" /><feOffset dy="4" /><feGaussianBlur stdDeviation="2" /><feComposite in2="hardAlpha" operator="out" /><feColorMatrix type="matrix" values="0 0 0 0 0 0 0 0 0 0 0 0 0 0 0 0 0 0 0.25 0" /><feBlend mode="normal" in2="BackgroundImageFix" result="effect1_dropShadow_0_1" /><feBlend mode="normal" in="SourceGraphic" in2="effect1_dropShadow_0_1" result="shape" /></filter><filter id="filter1_d_0_1" x="829.328" y="139.644" width="957.382" height="182.25" filterUnits="userSpaceOnUse" color-interpolation-filters="sRGB"><feFlood flood-opacity="0" result="BackgroundImageFix" /><feColorMatrix in="SourceAlpha" type="matrix" values="0 0 0 0 0 0 0 0 0 0 0 0 0 0 0 0 0 0 127 0" result="hardAlpha" /><feOffset dx="23" dy="4" /><feGaussianBlur stdDeviation="2.25" /><feComposite in2="hardAlpha" operator="out" /><feColorMatrix type="matrix" values="0 0 0 0 0.243137 0 0 0 0 0.176471 0 0 0 0 0.65098 0 0 0 0.83 0" /><feBlend mode="normal" in2="BackgroundImageFix" result="effect1_dropShadow_0_1" /><feBlend mode="normal" in="SourceGraphic" in2="effect1_dropShadow_0_1" result="shape" /></filter></defs></svg>