<svg width="2106" height="1008" viewBox="0 0 2106 1008" fill="none" xmlns="http://www.w3.org/2000/svg">
<g filter="url(#filter0_i_36_26)">
<path d="M1012.32 603.36C993.093 603.36 976.48 599.16 962.48 590.76C948.48 582.173 937.653 570.32 930 555.2C922.533 539.893 918.8 522.16 918.8 502C918.8 481.84 922.533 464.2 930 449.08C937.653 433.773 948.48 421.92 962.48 413.52C976.48 404.933 993.093 400.64 1012.32 400.64C1034.91 400.64 1053.2 405.96 1067.2 416.6C1081.2 427.24 1090.16 442.267 1094.08 461.68H1068.04C1065.05 449.547 1058.99 439.84 1049.84 432.56C1040.69 425.28 1028.19 421.64 1012.32 421.64C998.32 421.64 986.093 424.907 975.64 431.44C965.187 437.787 957.067 447.027 951.28 459.16C945.68 471.107 942.88 485.387 942.88 502C942.88 518.613 945.68 532.987 951.28 545.12C957.067 557.067 965.187 566.307 975.64 572.84C986.093 579.187 998.32 582.36 1012.32 582.36C1028.19 582.36 1040.79 578.813 1050.12 571.72C1059.64 564.44 1065.89 554.92 1068.88 543.16H1094.08C1090.16 562.013 1081.2 576.76 1067.2 587.4C1053.2 598.04 1034.91 603.36 1012.32 603.36ZM1116.56 600V404H1140.08V600H1116.56ZM1210.87 603.36C1199.86 603.36 1190.62 601.4 1183.15 597.48C1175.69 593.56 1170.09 588.333 1166.35 581.8C1162.81 575.267 1161.03 568.173 1161.03 560.52C1161.03 551 1163.46 542.973 1168.31 536.44C1173.35 529.907 1180.35 524.96 1189.31 521.6C1198.46 518.053 1209.19 516.28 1221.51 516.28H1259.03C1259.03 507.133 1257.63 499.573 1254.83 493.6C1252.03 487.627 1248.02 483.24 1242.79 480.44C1237.57 477.453 1231.31 475.96 1224.03 475.96C1214.89 475.96 1206.95 478.293 1200.23 482.96C1193.51 487.627 1189.41 494.813 1187.91 504.52H1163.83C1164.95 494.44 1168.22 485.947 1173.63 479.04C1179.23 472.133 1186.33 466.907 1194.91 463.36C1203.69 459.627 1213.39 457.76 1224.03 457.76C1237.29 457.76 1248.21 460.187 1256.79 465.04C1265.57 469.707 1272.01 476.333 1276.11 484.92C1280.41 493.32 1282.55 503.213 1282.55 514.6V600H1262.95L1260.71 576.2H1259.59C1256.98 580.68 1253.9 584.6 1250.35 587.96C1246.99 591.32 1243.26 594.12 1239.15 596.36C1235.05 598.6 1230.57 600.28 1225.71 601.4C1221.05 602.707 1216.1 603.36 1210.87 603.36ZM1215.07 583.48C1222.17 583.48 1228.42 582.173 1233.83 579.56C1239.25 576.76 1243.82 573.027 1247.55 568.36C1251.29 563.693 1254.09 558.467 1255.95 552.68C1258.01 546.707 1259.03 540.64 1259.03 534.48H1223.47C1214.33 534.48 1206.95 535.6 1201.35 537.84C1195.75 539.893 1191.74 542.787 1189.31 546.52C1186.89 550.253 1185.67 554.547 1185.67 559.4C1185.67 564.253 1186.79 568.547 1189.03 572.28C1191.46 575.827 1194.82 578.627 1199.11 580.68C1203.59 582.547 1208.91 583.48 1215.07 583.48ZM1357.32 603.36C1346.31 603.36 1336.41 601.493 1327.64 597.76C1318.87 593.84 1311.77 588.427 1306.36 581.52C1301.13 574.427 1297.87 566.12 1296.56 556.6H1320.64C1321.76 561.267 1323.63 565.84 1326.24 570.32C1329.04 574.613 1332.96 578.16 1338 580.96C1343.23 583.76 1349.76 585.16 1357.6 585.16C1364.32 585.16 1369.83 584.227 1374.12 582.36C1378.41 580.307 1381.59 577.693 1383.64 574.52C1385.88 571.16 1387 567.52 1387 563.6C1387 558.747 1385.6 554.827 1382.8 551.84C1380 548.853 1375.89 546.333 1370.48 544.28C1365.25 542.04 1359 539.893 1351.72 537.84C1346.12 536.16 1340.43 534.387 1334.64 532.52C1328.85 530.467 1323.53 528.04 1318.68 525.24C1314.01 522.44 1310.19 518.8 1307.2 514.32C1304.4 509.84 1303 504.24 1303 497.52C1303 490.053 1305.05 483.333 1309.16 477.36C1313.27 471.387 1319.05 466.627 1326.52 463.08C1334.17 459.533 1343.13 457.76 1353.4 457.76C1368.15 457.76 1380.19 461.4 1389.52 468.68C1399.04 475.96 1404.55 486.507 1406.04 500.32H1382.8C1382.05 492.48 1379.07 486.507 1373.84 482.4C1368.8 478.107 1361.89 475.96 1353.12 475.96C1344.53 475.96 1337.91 477.827 1333.24 481.56C1328.76 485.293 1326.52 489.96 1326.52 495.56C1326.52 499.293 1327.64 502.373 1329.88 504.8C1332.12 507.227 1335.67 509.373 1340.52 511.24C1345.56 512.92 1351.91 514.973 1359.56 517.4C1368.15 520.013 1376.27 522.907 1383.92 526.08C1391.76 529.253 1398.11 533.453 1402.96 538.68C1408 543.72 1410.52 550.627 1410.52 559.4C1410.71 567.987 1408.56 575.64 1404.08 582.36C1399.79 588.893 1393.63 594.027 1385.6 597.76C1377.76 601.493 1368.33 603.36 1357.32 603.36ZM1481.19 603.36C1470.17 603.36 1460.28 601.493 1451.51 597.76C1442.73 593.84 1435.64 588.427 1430.23 581.52C1425 574.427 1421.73 566.12 1420.43 556.6H1444.51C1445.63 561.267 1447.49 565.84 1450.11 570.32C1452.91 574.613 1456.83 578.16 1461.87 580.96C1467.09 583.76 1473.63 585.16 1481.47 585.16C1488.19 585.16 1493.69 584.227 1497.99 582.36C1502.28 580.307 1505.45 577.693 1507.51 574.52C1509.75 571.16 1510.87 567.52 1510.87 563.6C1510.87 558.747 1509.47 554.827 1506.67 551.84C1503.87 548.853 1499.76 546.333 1494.35 544.28C1489.12 542.04 1482.87 539.893 1475.59 537.84C1469.99 536.16 1464.29 534.387 1458.51 532.52C1452.72 530.467 1447.4 528.04 1442.55 525.24C1437.88 522.44 1434.05 518.8 1431.07 514.32C1428.27 509.84 1426.87 504.24 1426.87 497.52C1426.87 490.053 1428.92 483.333 1433.03 477.36C1437.13 471.387 1442.92 466.627 1450.39 463.08C1458.04 459.533 1467 457.76 1477.27 457.76C1492.01 457.76 1504.05 461.4 1513.39 468.68C1522.91 475.96 1528.41 486.507 1529.91 500.32H1506.67C1505.92 492.48 1502.93 486.507 1497.71 482.4C1492.67 478.107 1485.76 475.96 1476.99 475.96C1468.4 475.96 1461.77 477.827 1457.11 481.56C1452.63 485.293 1450.39 489.96 1450.39 495.56C1450.39 499.293 1451.51 502.373 1453.75 504.8C1455.99 507.227 1459.53 509.373 1464.39 511.24C1469.43 512.92 1475.77 514.973 1483.43 517.4C1492.01 520.013 1500.13 522.907 1507.79 526.08C1515.63 529.253 1521.97 533.453 1526.83 538.68C1531.87 543.72 1534.39 550.627 1534.39 559.4C1534.57 567.987 1532.43 575.64 1527.95 582.36C1523.65 588.893 1517.49 594.027 1509.47 597.76C1501.63 601.493 1492.2 603.36 1481.19 603.36ZM1606.45 579.84V457.76H1627.45V579.84H1606.45ZM1552.97 528.6V508.72H1680.93V528.6H1552.97ZM1760.4 579.84V457.76H1781.4V579.84H1760.4ZM1706.92 528.6V508.72H1834.88V528.6H1706.92Z" fill="#4A3BAC"/>
</g>
<g filter="url(#filter1_d_36_26)">
<g filter="url(#filter2_d_36_26)">
<path d="M732.629 622.393C732.629 635.952 725.761 648.573 714.413 655.941L713.869 656.287L486.329 798.878L481.203 802.09L475.979 799.041L249.25 666.741C236.964 659.572 229.41 646.418 229.409 632.193V361.714L234.369 358.819L460.86 226.659L461.446 226.323C473.797 219.392 488.917 219.504 501.179 226.659L727.668 358.819L732.629 361.714V622.393Z" stroke="#4A3BAC" stroke-width="20"/>
<path d="M231.92 635.335C231.92 648.147 238.729 659.978 249.768 666.422L250.296 666.726L469.292 789.679L478.267 794.717L478.229 784.425L477.299 529.489L477.292 528.893C477.04 516.403 470.326 504.917 459.529 498.577L240.959 370.225L231.92 364.918V635.335Z" stroke="#4A3BAC" stroke-width="12"/>
<path d="M728.424 627.788C728.424 640.262 721.968 651.831 711.389 658.387L710.882 658.695L491.688 789.598L482.745 794.939L482.612 784.524L479.361 530.061C479.195 517.037 486.077 504.939 497.357 498.425L719.423 370.203L728.424 365.006V627.788Z" stroke="#4A3BAC" stroke-width="12"/>
<path d="M423.829 476.183C423.829 476.183 461.386 499.316 478.186 500C493.751 500.633 534.033 476.183 534.033 476.183" stroke="#4A3BAC" stroke-width="10" stroke-miterlimit="2.5593"/>
<rect x="472.233" y="501.989" width="12.8997" height="8.92835" fill="#4A3BAC" stroke="#4A3BAC"/>
</g>
<g filter="url(#filter3_d_36_26)">
<path d="M19 108.805V19.4082V18.656C19 17.7057 19.4418 16.8586 20.1313 16.3089C20.6439 15.9002 21.2934 15.656 22 15.656H99.8008L179.735 15.0009C179.792 15.0004 179.839 15.0468 179.839 15.1043C179.839 15.409 179.592 15.656 179.288 15.656H99.8008L20.1313 16.3089C19.4418 16.8586 19 17.7057 19 18.656V19.4082L19.7589 161.304C19.7607 161.654 19.4771 161.94 19.1265 161.94C19.0566 161.94 19 161.883 19 161.813V108.805Z" fill="#3B4A9A"/>
<path d="M19 19.4082L19.7589 161.304C19.7607 161.654 19.4771 161.94 19.1265 161.94V161.94C19.0566 161.94 19 161.883 19 161.813V108.805V18.656C19 16.9991 20.3431 15.656 22 15.656H179.288C179.592 15.656 179.839 15.409 179.839 15.1043V15.1043C179.839 15.0468 179.792 15.0004 179.735 15.0009L19.7623 16.312" stroke="#4156CF" stroke-width="30"/>
<path d="M19 891.195V980.592V981.344C19 982.294 19.4418 983.141 20.1313 983.691C20.6439 984.1 21.2934 984.344 22 984.344H99.8008L179.735 984.999C179.792 985 179.839 984.953 179.839 984.896C179.839 984.591 179.592 984.344 179.288 984.344H99.8008L20.1313 983.691C19.4418 983.141 19 982.294 19 981.344V980.592L19.7589 838.696C19.7607 838.346 19.4771 838.06 19.1265 838.06C19.0566 838.06 19 838.117 19 838.187V891.195Z" fill="#3B4A9A"/>
<path d="M19 980.592L19.7589 838.696C19.7607 838.346 19.4771 838.06 19.1265 838.06V838.06C19.0566 838.06 19 838.117 19 838.187V891.195V981.344C19 983.001 20.3431 984.344 22 984.344H179.288C179.592 984.344 179.839 984.591 179.839 984.896V984.896C179.839 984.953 179.792 985 179.735 984.999L19.7623 983.688" stroke="#4156CF" stroke-width="30"/>
<path d="M934.394 108.805V19.4082V18.656C934.394 17.7057 933.952 16.8586 933.263 16.3089C932.75 15.9002 932.101 15.656 931.394 15.656H853.593L773.659 15.0009C773.602 15.0004 773.555 15.0468 773.555 15.1043C773.555 15.409 773.802 15.656 774.106 15.656H853.593L933.263 16.3089C933.952 16.8586 934.394 17.7057 934.394 18.656V19.4082L933.635 161.304C933.633 161.654 933.917 161.94 934.268 161.94C934.337 161.94 934.394 161.883 934.394 161.813V108.805Z" fill="#3B4A9A"/>
<path d="M934.394 19.4082L933.635 161.304C933.633 161.654 933.917 161.94 934.268 161.94V161.94C934.337 161.94 934.394 161.883 934.394 161.813V108.805V18.656C934.394 16.9991 933.051 15.656 931.394 15.656H774.106C773.802 15.656 773.555 15.409 773.555 15.1043V15.1043C773.555 15.0468 773.602 15.0004 773.659 15.0009L933.632 16.312" stroke="#4156CF" stroke-width="30"/>
<path d="M934.394 891.195V980.592V981.344C934.394 982.294 933.952 983.141 933.263 983.691C932.75 984.1 932.101 984.344 931.394 984.344H853.593L773.659 984.999C773.602 985 773.555 984.953 773.555 984.896C773.555 984.591 773.802 984.344 774.106 984.344H853.593L933.263 983.691C933.952 983.141 934.394 982.294 934.394 981.344V980.592L933.635 838.696C933.633 838.346 933.917 838.06 934.268 838.06C934.337 838.06 934.394 838.117 934.394 838.187V891.195Z" fill="#3B4A9A"/>
<path d="M934.394 980.592L933.635 838.696C933.633 838.346 933.917 838.06 934.268 838.06V838.06C934.337 838.06 934.394 838.117 934.394 838.187V891.195V981.344C934.394 983.001 933.051 984.344 931.394 984.344H774.106C773.802 984.344 773.555 984.591 773.555 984.896V984.896C773.555 984.953 773.602 985 773.659 984.999L933.632 983.688" stroke="#4156CF" stroke-width="30"/>
<path d="M893.191 25.9212C922.976 27.4102 924.466 45.2815 924.466 83.0092" stroke="#4156CF" stroke-width="10" stroke-miterlimit="2.5593"/>
<path d="M59.7063 25.9212C30.394 27.4232 28.9284 45.4498 28.9284 83.5056" stroke="#4156CF" stroke-width="10" stroke-miterlimit="2.5593"/>
<path d="M58.7134 974.079C29.4011 972.577 27.9355 954.55 27.9355 916.494" stroke="#4156CF" stroke-width="10" stroke-miterlimit="2.5593"/>
<path d="M893.688 974.079C923 972.577 924.466 954.55 924.466 916.494" stroke="#4156CF" stroke-width="10" stroke-miterlimit="2.5593"/>
</g>
</g>
<defs>
<filter id="filter0_i_36_26" x="918.8" y="400.64" width="926.079" height="206.72" filterUnits="userSpaceOnUse" color-interpolation-filters="sRGB">
<feFlood flood-opacity="0" result="BackgroundImageFix"/>
<feBlend mode="normal" in="SourceGraphic" in2="BackgroundImageFix" result="shape"/>
<feColorMatrix in="SourceAlpha" type="matrix" values="0 0 0 0 0 0 0 0 0 0 0 0 0 0 0 0 0 0 127 0" result="hardAlpha"/>
<feOffset dx="12" dy="4"/>
<feGaussianBlur stdDeviation="5"/>
<feComposite in2="hardAlpha" operator="arithmetic" k2="-1" k3="1"/>
<feColorMatrix type="matrix" values="0 0 0 0 1 0 0 0 0 1 0 0 0 0 1 0 0 0 0.16 0"/>
<feBlend mode="normal" in2="shape" result="effect1_innerShadow_36_26"/>
</filter>
<filter id="filter1_d_36_26" x="0" y="0.000854492" width="953.394" height="1008" filterUnits="userSpaceOnUse" color-interpolation-filters="sRGB">
<feFlood flood-opacity="0" result="BackgroundImageFix"/>
<feColorMatrix in="SourceAlpha" type="matrix" values="0 0 0 0 0 0 0 0 0 0 0 0 0 0 0 0 0 0 127 0" result="hardAlpha"/>
<feOffset dy="4"/>
<feGaussianBlur stdDeviation="2"/>
<feComposite in2="hardAlpha" operator="out"/>
<feColorMatrix type="matrix" values="0 0 0 0 0 0 0 0 0 0 0 0 0 0 0 0 0 0 0.25 0"/>
<feBlend mode="normal" in2="BackgroundImageFix" result="effect1_dropShadow_36_26"/>
<feBlend mode="normal" in="SourceGraphic" in2="effect1_dropShadow_36_26" result="shape"/>
</filter>
<filter id="filter2_d_36_26" x="215.409" y="211.208" width="531.219" height="607.197" filterUnits="userSpaceOnUse" color-interpolation-filters="sRGB">
<feFlood flood-opacity="0" result="BackgroundImageFix"/>
<feColorMatrix in="SourceAlpha" type="matrix" values="0 0 0 0 0 0 0 0 0 0 0 0 0 0 0 0 0 0 127 0" result="hardAlpha"/>
<feOffset dy="4"/>
<feGaussianBlur stdDeviation="2"/>
<feComposite in2="hardAlpha" operator="out"/>
<feColorMatrix type="matrix" values="0 0 0 0 0 0 0 0 0 0 0 0 0 0 0 0 0 0 0.25 0"/>
<feBlend mode="normal" in2="BackgroundImageFix" result="effect1_dropShadow_36_26"/>
<feBlend mode="normal" in="SourceGraphic" in2="effect1_dropShadow_36_26" result="shape"/>
</filter>
<filter id="filter3_d_36_26" x="0" y="0.000854492" width="953.394" height="1008" filterUnits="userSpaceOnUse" color-interpolation-filters="sRGB">
<feFlood flood-opacity="0" result="BackgroundImageFix"/>
<feColorMatrix in="SourceAlpha" type="matrix" values="0 0 0 0 0 0 0 0 0 0 0 0 0 0 0 0 0 0 127 0" result="hardAlpha"/>
<feOffset dy="4"/>
<feGaussianBlur stdDeviation="2"/>
<feComposite in2="hardAlpha" operator="out"/>
<feColorMatrix type="matrix" values="0 0 0 0 0 0 0 0 0 0 0 0 0 0 0 0 0 0 0.25 0"/>
<feBlend mode="normal" in2="BackgroundImageFix" result="effect1_dropShadow_36_26"/>
<feBlend mode="normal" in="SourceGraphic" in2="effect1_dropShadow_36_26" result="shape"/>
</filter>
</defs>
</svg>
