<svg width="1706" height="823" viewBox="0 0 1706 823" fill="none" xmlns="http://www.w3.org/2000/svg">
<g filter="url(#filter0_i_36_26)">
<path d="M827.7 504.039C811.86 504.039 798.1 500.439 786.42 493.239C774.9 485.879 765.94 475.719 759.54 462.759C753.3 449.639 750.18 434.439 750.18 417.159C750.18 399.879 753.3 384.759 759.54 371.799C765.94 358.679 774.9 348.519 786.42 341.319C798.1 333.959 811.86 330.279 827.7 330.279C846.74 330.279 862.18 334.839 874.02 343.959C885.86 353.079 893.46 365.959 896.82 382.599H874.98C872.26 372.199 866.98 363.879 859.14 357.639C851.46 351.239 840.98 348.039 827.7 348.039C816.18 348.039 806.1 350.839 797.46 356.439C788.98 361.879 782.42 369.799 777.78 380.199C773.14 390.439 770.82 402.759 770.82 417.159C770.82 431.559 773.14 443.959 777.78 454.359C782.42 464.599 788.98 472.519 797.46 478.119C806.1 483.559 816.18 486.279 827.7 486.279C840.98 486.279 851.46 483.239 859.14 477.159C866.98 470.919 872.26 462.679 874.98 452.439H896.82C893.46 468.599 885.86 481.239 874.02 490.359C862.18 499.479 846.74 504.039 827.7 504.039ZM925.617 501.159V328.359H945.777V501.159H925.617ZM1019.12 504.039C1009.52 504.039 1001.52 502.279 995.117 498.759C988.717 495.079 983.917 490.279 980.717 484.359C977.517 478.279 975.917 471.799 975.917 464.919C975.917 456.599 977.997 449.559 982.157 443.799C986.477 437.879 992.477 433.399 1000.16 430.359C1007.84 427.319 1016.8 425.799 1027.04 425.799H1058.48C1058.48 417.639 1057.52 410.839 1055.6 405.399C1053.68 399.959 1050.56 395.879 1046.24 393.159C1041.92 390.439 1036.16 389.079 1028.96 389.079C1021.76 389.079 1015.6 390.919 1010.48 394.599C1005.36 398.119 1002.16 403.399 1000.88 410.439H980.237C981.197 402.119 983.997 395.159 988.637 389.559C993.277 383.799 999.117 379.479 1006.16 376.599C1013.36 373.559 1020.96 372.039 1028.96 372.039C1040.32 372.039 1049.68 374.119 1057.04 378.279C1064.4 382.279 1069.84 387.959 1073.36 395.319C1076.88 402.519 1078.64 411.079 1078.64 420.999V501.159H1060.64L1059.44 479.559C1057.84 482.919 1055.76 486.119 1053.2 489.159C1050.8 492.039 1047.92 494.599 1044.56 496.839C1041.2 499.079 1037.36 500.839 1033.04 502.119C1028.88 503.399 1024.24 504.039 1019.12 504.039ZM1022 486.999C1027.28 486.999 1032.16 485.799 1036.64 483.399C1041.12 480.999 1044.96 477.799 1048.16 473.799C1051.52 469.639 1054.08 464.999 1055.84 459.879C1057.6 454.759 1058.48 449.399 1058.48 443.799V441.399H1028.72C1021.2 441.399 1015.04 442.359 1010.24 444.279C1005.6 446.199 1002.24 448.919 1000.16 452.439C998.077 455.799 997.037 459.639 997.037 463.959C997.037 468.599 997.997 472.679 999.917 476.199C1001.84 479.559 1004.64 482.199 1008.32 484.119C1012.16 486.039 1016.72 486.999 1022 486.999ZM1157.54 504.039C1146.18 504.039 1136.74 502.359 1129.22 498.999C1121.86 495.479 1116.26 490.679 1112.42 484.599C1108.58 478.359 1106.26 471.159 1105.46 462.999H1126.1C1126.74 467.319 1128.18 471.319 1130.42 474.999C1132.82 478.519 1136.26 481.399 1140.74 483.639C1145.22 485.879 1150.9 486.999 1157.78 486.999C1163.22 486.999 1167.86 486.199 1171.7 484.599C1175.54 482.839 1178.42 480.439 1180.34 477.399C1182.42 474.359 1183.46 470.839 1183.46 466.839C1183.46 461.559 1182.26 457.479 1179.86 454.599C1177.62 451.559 1174.26 449.319 1169.78 447.879C1165.46 446.279 1160.02 445.079 1153.46 444.279C1146.42 443.319 1140.18 441.959 1134.74 440.199C1129.3 438.439 1124.66 436.119 1120.82 433.239C1117.14 430.359 1114.34 426.759 1112.42 422.439C1110.5 418.119 1109.54 412.999 1109.54 407.079C1109.54 400.199 1111.38 394.119 1115.06 388.839C1118.74 383.559 1123.94 379.479 1130.66 376.599C1137.54 373.559 1145.62 372.039 1154.9 372.039C1168.5 372.039 1179.22 375.159 1187.06 381.399C1195.06 387.639 1199.78 396.519 1201.22 408.039H1181.3C1180.5 402.119 1177.78 397.479 1173.14 394.119C1168.5 390.759 1162.34 389.079 1154.66 389.079C1146.5 389.079 1140.34 390.599 1136.18 393.639C1132.02 396.679 1129.94 400.679 1129.94 405.639C1129.94 409.319 1130.82 412.679 1132.58 415.719C1134.5 418.599 1137.7 421.079 1142.18 423.159C1146.66 425.079 1152.66 426.519 1160.18 427.479C1169.62 428.599 1177.62 430.439 1184.18 432.999C1190.74 435.399 1195.7 439.159 1199.06 444.279C1202.58 449.399 1204.26 456.359 1204.1 465.159C1204.1 473.479 1202.1 480.519 1198.1 486.279C1194.26 492.039 1188.82 496.439 1181.78 499.479C1174.9 502.519 1166.82 504.039 1157.54 504.039ZM1279.65 504.039C1268.29 504.039 1258.85 502.359 1251.33 498.999C1243.97 495.479 1238.37 490.679 1234.53 484.599C1230.69 478.359 1228.37 471.159 1227.57 462.999H1248.21C1248.85 467.319 1250.29 471.319 1252.53 474.999C1254.93 478.519 1258.37 481.399 1262.85 483.639C1267.33 485.879 1273.01 486.999 1279.89 486.999C1285.33 486.999 1289.97 486.199 1293.81 484.599C1297.65 482.839 1300.53 480.439 1302.45 477.399C1304.53 474.359 1305.57 470.839 1305.57 466.839C1305.57 461.559 1304.37 457.479 1301.97 454.599C1299.73 451.559 1296.37 449.319 1291.89 447.879C1287.57 446.279 1282.13 445.079 1275.57 444.279C1268.53 443.319 1262.29 441.959 1256.85 440.199C1251.41 438.439 1246.77 436.119 1242.93 433.239C1239.25 430.359 1236.45 426.759 1234.53 422.439C1232.61 418.119 1231.65 412.999 1231.65 407.079C1231.65 400.199 1233.49 394.119 1237.17 388.839C1240.85 383.559 1246.05 379.479 1252.77 376.599C1259.65 373.559 1267.73 372.039 1277.01 372.039C1290.61 372.039 1301.33 375.159 1309.17 381.399C1317.17 387.639 1321.89 396.519 1323.33 408.039H1303.41C1302.61 402.119 1299.89 397.479 1295.25 394.119C1290.61 390.759 1284.45 389.079 1276.77 389.079C1268.61 389.079 1262.45 390.599 1258.29 393.639C1254.13 396.679 1252.05 400.679 1252.05 405.639C1252.05 409.319 1252.93 412.679 1254.69 415.719C1256.61 418.599 1259.81 421.079 1264.29 423.159C1268.77 425.079 1274.77 426.519 1282.29 427.479C1291.73 428.599 1299.73 430.439 1306.29 432.999C1312.85 435.399 1317.81 439.159 1321.17 444.279C1324.69 449.399 1326.37 456.359 1326.21 465.159C1326.21 473.479 1324.21 480.519 1320.21 486.279C1316.37 492.039 1310.93 496.439 1303.89 499.479C1297.01 502.519 1288.93 504.039 1279.65 504.039ZM1395.76 483.879V379.239H1414V483.879H1395.76ZM1350.16 439.959V422.919H1459.84V439.959H1350.16ZM1527.72 483.879V379.239H1545.96V483.879H1527.72ZM1482.12 439.959V422.919H1591.8V439.959H1482.12Z" fill="#4A3BAC"/>
</g>
<g filter="url(#filter1_d_36_26)">
<g filter="url(#filter2_d_36_26)">
<path d="M597.77 502.794C597.769 516.353 590.902 528.974 579.554 536.342L579.01 536.689L397.777 650.259L392.651 653.472L387.428 650.423L207.006 545.145C194.72 537.976 187.165 524.821 187.165 510.596V294.159L192.125 291.266L372.308 186.127L372.894 185.791C385.245 178.86 400.365 178.972 412.627 186.127L592.81 291.266L597.77 294.159V502.794Z" stroke="#4A3BAC" stroke-width="20"/>
<path d="M189.962 513.072C189.962 525.885 196.77 537.715 207.809 544.16L208.338 544.463L382.425 642.202L391.399 647.241L391.362 636.949L390.622 434.152L390.615 433.557C390.364 421.067 383.649 409.581 372.852 403.241L199 301.149L189.962 295.841V513.072Z" stroke="#4A3BAC" stroke-width="12"/>
<path d="M593.604 507.074C593.603 519.548 587.148 531.118 576.568 537.673L576.062 537.981L401.681 642.122L392.737 647.463L392.604 637.047L390.02 434.725C389.853 421.701 396.736 409.603 408.016 403.089L584.604 301.127L593.604 295.93V507.074Z" stroke="#4A3BAC" stroke-width="12"/>
<path d="M346.238 387.79C346.238 387.79 376.598 406.49 390.178 407.042C402.759 407.554 435.321 387.79 435.321 387.79" stroke="#4A3BAC" stroke-width="10" stroke-miterlimit="2.5593"/>
<rect x="385.46" y="408.746" width="10.2356" height="7.02543" fill="#4A3BAC" stroke="#4A3BAC"/>
</g>
<g filter="url(#filter3_d_36_26)">
<path d="M19 90.8259V18.5633V18.5303C19 17.5025 19.5168 16.5955 20.3047 16.0549C20.787 15.7239 21.3709 15.5303 22 15.5303H84.3143L148.928 15.0007C148.975 15.0003 149.012 15.0379 149.012 15.0843C149.012 15.3306 148.813 15.5303 148.566 15.5303H84.3143L20.3047 16.0549C19.5168 16.5955 19 17.5025 19 18.5303V18.5633L19.6134 133.262C19.6149 133.546 19.3856 133.776 19.1022 133.776C19.0458 133.776 19 133.731 19 133.674V90.8259Z" fill="#3B4A9A"/>
<path d="M19 18.5633L19.6134 133.262C19.6149 133.546 19.3856 133.776 19.1022 133.776V133.776C19.0458 133.776 19 133.731 19 133.674V90.8259V18.5303C19 16.8734 20.3431 15.5303 22 15.5303H148.566C148.813 15.5303 149.012 15.3306 149.012 15.0843V15.0843C149.012 15.0379 148.975 15.0003 148.928 15.0007L19.6162 16.0605" stroke="#4156CF" stroke-width="30"/>
<path d="M19 723.258V795.521V795.554C19 796.582 19.5168 797.489 20.3047 798.029C20.787 798.36 21.3709 798.554 22 798.554H84.3143L148.928 799.083C148.975 799.084 149.012 799.046 149.012 799C149.012 798.754 148.813 798.554 148.566 798.554H84.3143L20.3047 798.029C19.5168 797.489 19 796.582 19 795.554V795.521L19.6134 680.822C19.6149 680.538 19.3856 680.308 19.1022 680.308C19.0458 680.308 19 680.354 19 680.41V723.258Z" fill="#3B4A9A"/>
<path d="M19 795.521L19.6134 680.822C19.6149 680.538 19.3856 680.308 19.1022 680.308V680.308C19.0458 680.308 19 680.354 19 680.41V723.258V795.554C19 797.211 20.3431 798.554 22 798.554H148.566C148.813 798.554 149.012 798.754 149.012 799V799C149.012 799.046 148.975 799.084 148.928 799.083L19.6162 798.024" stroke="#4156CF" stroke-width="30"/>
<path d="M758.947 90.8259V18.5633V18.5303C758.947 17.5025 758.43 16.5955 757.642 16.0549C757.16 15.7239 756.576 15.5303 755.947 15.5303H693.632L629.019 15.0007C628.972 15.0003 628.934 15.0379 628.934 15.0843C628.934 15.3306 629.134 15.5303 629.38 15.5303H693.632L757.642 16.0549C758.43 16.5955 758.947 17.5025 758.947 18.5303V18.5633L758.333 133.262C758.332 133.546 758.561 133.776 758.845 133.776C758.901 133.776 758.947 133.731 758.947 133.674V90.8259Z" fill="#3B4A9A"/>
<path d="M758.947 18.5633L758.333 133.262C758.332 133.546 758.561 133.776 758.845 133.776V133.776C758.901 133.776 758.947 133.731 758.947 133.674V90.8259V18.5303C758.947 16.8734 757.604 15.5303 755.947 15.5303H629.38C629.134 15.5303 628.934 15.3306 628.934 15.0843V15.0843C628.934 15.0379 628.972 15.0003 629.019 15.0007L758.331 16.0605" stroke="#4156CF" stroke-width="30"/>
<path d="M758.947 723.258V795.521V795.554C758.947 796.582 758.43 797.489 757.642 798.029C757.16 798.36 756.576 798.554 755.947 798.554H693.632L629.019 799.083C628.972 799.084 628.934 799.046 628.934 799C628.934 798.754 629.134 798.554 629.38 798.554H693.632L757.642 798.029C758.43 797.489 758.947 796.582 758.947 795.554V795.521L758.333 680.822C758.332 680.538 758.561 680.308 758.845 680.308C758.901 680.308 758.947 680.354 758.947 680.41V723.258Z" fill="#3B4A9A"/>
<path d="M758.947 795.521L758.333 680.822C758.332 680.538 758.561 680.308 758.845 680.308V680.308C758.901 680.308 758.947 680.354 758.947 680.41V723.258V795.554C758.947 797.211 757.604 798.554 755.947 798.554H629.38C629.134 798.554 628.934 798.754 628.934 799V799C628.934 799.046 628.972 799.084 629.019 799.083L758.331 798.024" stroke="#4156CF" stroke-width="30"/>
<path d="M725.642 23.828C749.718 25.0316 750.922 39.4776 750.922 69.9742" stroke="#4156CF" stroke-width="10" stroke-miterlimit="2.5593"/>
<path d="M51.9043 23.828C28.2101 25.0421 27.0254 39.6136 27.0254 70.3755" stroke="#4156CF" stroke-width="10" stroke-miterlimit="2.5593"/>
<path d="M51.1018 790.256C27.4076 789.042 26.2229 774.471 26.2229 743.709" stroke="#4156CF" stroke-width="10" stroke-miterlimit="2.5593"/>
<path d="M726.043 790.256C749.737 789.042 750.922 774.471 750.922 743.709" stroke="#4156CF" stroke-width="10" stroke-miterlimit="2.5593"/>
</g>
</g>
<defs>
<filter id="filter0_i_36_26" x="750.18" y="328.359" width="851.617" height="179.68" filterUnits="userSpaceOnUse" color-interpolation-filters="sRGB">
<feFlood flood-opacity="0" result="BackgroundImageFix"/>
<feBlend mode="normal" in="SourceGraphic" in2="BackgroundImageFix" result="shape"/>
<feColorMatrix in="SourceAlpha" type="matrix" values="0 0 0 0 0 0 0 0 0 0 0 0 0 0 0 0 0 0 127 0" result="hardAlpha"/>
<feOffset dx="12" dy="4"/>
<feGaussianBlur stdDeviation="5"/>
<feComposite in2="hardAlpha" operator="arithmetic" k2="-1" k3="1"/>
<feColorMatrix type="matrix" values="0 0 0 0 1 0 0 0 0 1 0 0 0 0 1 0 0 0 0.16 0"/>
<feBlend mode="normal" in2="shape" result="effect1_innerShadow_36_26"/>
</filter>
<filter id="filter1_d_36_26" x="0" y="0.000671387" width="777.947" height="822.083" filterUnits="userSpaceOnUse" color-interpolation-filters="sRGB">
<feFlood flood-opacity="0" result="BackgroundImageFix"/>
<feColorMatrix in="SourceAlpha" type="matrix" values="0 0 0 0 0 0 0 0 0 0 0 0 0 0 0 0 0 0 127 0" result="hardAlpha"/>
<feOffset dy="4"/>
<feGaussianBlur stdDeviation="2"/>
<feComposite in2="hardAlpha" operator="out"/>
<feColorMatrix type="matrix" values="0 0 0 0 0 0 0 0 0 0 0 0 0 0 0 0 0 0 0.25 0"/>
<feBlend mode="normal" in2="BackgroundImageFix" result="effect1_dropShadow_36_26"/>
<feBlend mode="normal" in="SourceGraphic" in2="effect1_dropShadow_36_26" result="shape"/>
</filter>
<filter id="filter2_d_36_26" x="173.165" y="170.675" width="438.604" height="499.11" filterUnits="userSpaceOnUse" color-interpolation-filters="sRGB">
<feFlood flood-opacity="0" result="BackgroundImageFix"/>
<feColorMatrix in="SourceAlpha" type="matrix" values="0 0 0 0 0 0 0 0 0 0 0 0 0 0 0 0 0 0 127 0" result="hardAlpha"/>
<feOffset dy="4"/>
<feGaussianBlur stdDeviation="2"/>
<feComposite in2="hardAlpha" operator="out"/>
<feColorMatrix type="matrix" values="0 0 0 0 0 0 0 0 0 0 0 0 0 0 0 0 0 0 0.25 0"/>
<feBlend mode="normal" in2="BackgroundImageFix" result="effect1_dropShadow_36_26"/>
<feBlend mode="normal" in="SourceGraphic" in2="effect1_dropShadow_36_26" result="shape"/>
</filter>
<filter id="filter3_d_36_26" x="0" y="0.000671387" width="777.947" height="822.083" filterUnits="userSpaceOnUse" color-interpolation-filters="sRGB">
<feFlood flood-opacity="0" result="BackgroundImageFix"/>
<feColorMatrix in="SourceAlpha" type="matrix" values="0 0 0 0 0 0 0 0 0 0 0 0 0 0 0 0 0 0 127 0" result="hardAlpha"/>
<feOffset dy="4"/>
<feGaussianBlur stdDeviation="2"/>
<feComposite in2="hardAlpha" operator="out"/>
<feColorMatrix type="matrix" values="0 0 0 0 0 0 0 0 0 0 0 0 0 0 0 0 0 0 0.25 0"/>
<feBlend mode="normal" in2="BackgroundImageFix" result="effect1_dropShadow_36_26"/>
<feBlend mode="normal" in="SourceGraphic" in2="effect1_dropShadow_36_26" result="shape"/>
</filter>
</defs>
</svg>
